<svg id="Layer_1" data-name="Layer 1" xmlns="http://www.w3.org/2000/svg" viewBox="0 0 1921.98 386.99"><defs><style>.cls-1{fill:#1ca610;}.cls-2{fill:#18a706;}.cls-3{fill:#fcfdfd;}.cls-4{fill:#055fb9;}.cls-5{fill:#0a62ba;}</style></defs><path class="cls-1" d="M928.59,381.5c-12.19-4.42-21.8-8.45-30-16.57-19.78-19.69-24-44.25-13.87-69.76,10.22-25.69,30.58-39.87,58.57-40.77,18.89-.6,34.86,7.15,48.22,23.62V258.34h17.11v123h-16.2V365.29c-12,6.42-19.93,13.32-32,16C951,384.05,937.1,383.73,928.59,381.5ZM945.15,369c27.42,0,48.57-21.15,48.59-48.66s-21-49.34-47.93-49.42c-27.29-.08-48.53,21.18-48.58,48.6S918.53,369,945.15,369Z" transform="translate(-0.3)"/><path class="cls-2" d="M778,385.1c-22.21-7.36-37.78-21.43-45.05-44-10.94-33.91,7.4-72.19,39.68-82.65,34.66-11.22,70.26,6.19,81.06,40,2.26,7.09,2.93,14.68,4.54,23.08H748c-2.13,18.86,10.72,39.09,28.46,45.72,22.77,8.51,44.71-.52,63.24-26.55l13.65,7.19c-9,17.94-28.85,29.23-29.92,30.31-.91.91-11,5.83-12.74,6C801.76,387.52,787.83,387.93,778,385.1Zm59.94-78c-4.67-23.26-22.78-36.14-48.18-35.34-19.74.62-37,16-39.63,35.34Z" transform="translate(-0.3)"/><path class="cls-1" d="M1561.75,382.43c-13.12-2.65-23.18-9.67-32.18-20.63-29.88-36.33-12.86-92.45,32.11-105.08,34.58-9.72,71.49,11.37,80.09,45.75,9.14,36.56-12.1,72.49-47.49,80.41-.84.19-6.51,1.37-7.66,1.37A63.09,63.09,0,0,1,1561.75,382.43ZM1532,320.13c0,27.52,20.39,48.69,47,48.75s47.65-21.23,47.69-48.39c0-27.35-21.49-49.64-47.86-49.54C1552.82,271,1532,292.86,1532,320.13Z" transform="translate(-0.3)"/><path class="cls-1" d="M1921.43,269.34c-3.17,3.62-8,9.48-10.84,12-6-3.5-11.24-7.37-17.07-9.75-9.45-3.85-20.53,0-24.46,7.48s-.89,16.92,8,23.06a150,150,0,0,0,16.43,9.85c11.57,6,21.3,13.78,27,25.84,3,9.45,1.91,15,0,21.48-5.46,11.21-12.74,18.11-22.37,22.65-8.09,3.21-12.79,3.7-21.42,2.31-7.78-1.84-22.48-10.7-31.18-16.28l10.19-12.36c6.77,3.92,12.89,8.52,19.76,11.21A21.63,21.63,0,0,0,1903,356.2c4.59-9.3,1.64-18-9.16-24.95-8.56-5.54-17.84-10-26.22-15.79-15.44-10.65-20.1-29.49-11.66-44.51s26.93-21.06,44.17-13.72" transform="translate(-0.3)"/><path class="cls-3" d="M1920,272.89" transform="translate(-0.3)"/><path class="cls-3" d="M1893.12,271.94" transform="translate(-0.3)"/><path class="cls-3" d="M1894.91,384.25" transform="translate(-0.3)"/><path class="cls-1" d="M0,192.24" transform="translate(-0.3)"/><path class="cls-4" d="M440.28,132.9c-4.47-5.72-8.81-11.54-13.44-17.14-41.3-49.91-112-69.94-170.62-48.73-23.22,8.4-40.44,24.22-55.77,42.69-6.55,7.88-12.78,16.1-19.95,23.39-23,23.3-51.58,29.21-85,25.67,5.07-23.07,15.62-43.08,28.26-62.08,25.56-38.43,60.9-63.78,105.89-74.48C324.44-.33,407.75,54.18,440.28,132.9Z" transform="translate(-0.3)"/><path class="cls-2" d="M538.67,219.05c-24.25-12.15-49.1-22.31-76.12-27.14-34.79-6.22-69-3.25-102.77,5.21-41.37,10.37-82.22,22.76-123.53,33.42-77.32,20-150.79,9.24-220.48-29-1.4-.77-4.85-2.92-6.3-3.62,0,0-9.17-5.13-9.17-5.13,2.64-.32,16.86,5.19,19.13,5.95,56.32,18.92,112.33,13.63,168.21-1.84,40.85-11.3,81.34-24,122.52-34,86.24-20.81,163.45-.71,232.1,54.27Z" transform="translate(-0.3)"/><path class="cls-4" d="M448.53,239.62c-10.5,24.95-21.7,54.56-41,77.42-29.09,34.47-66.59,54.43-111.16,61-78.17,11.5-173.53-43.7-190.89-111.81,2.75,3.44,5.53,6.86,8.25,10.32,39.37,50.36,104.52,72.36,165.09,56,29.42-7.93,50.56-26.82,68.43-50.12,14.06-18.31,29.5-35.27,52.88-40.87,15-3.59,34.84-5,50.23-6.64C448.85,238.82,450.36,234.94,448.53,239.62Z" transform="translate(-0.3)"/><path class="cls-1" d="M1405.15,214,1452,332.85l34.14-118.23h17.95C1487.9,270.91,1472,326.42,1456,381.93l-3.29.32L1403.43,257l-50.34,125.27-3.22-.17c-15.76-55.54-31.52-111.08-47.51-167.38h18.13c11,38.67,21.86,77,33.5,118l47.53-118.87Z" transform="translate(-0.3)"/><path class="cls-5" d="M731.25,107.7H679.39V91h70.24c4.16,27.76-11.62,59-37.34,73.43-35.23,19.74-98.27,15.49-126.41-31.63-17.1-28.61-17.76-58.25-1.81-87.38C600.13,16,626.08,1.89,659.38.16c32-1.66,58.66,9.78,81.32,31.73l-13,12.8c-13.88-12.62-29.46-21.95-48.22-26C642,10.7,603,34.15,593.27,71.27,584,106.76,607.52,145.82,645,155.42c22.14,5.67,43.92,4.64,63.35-9.56C721.11,136.54,728.49,124,731.25,107.7Z" transform="translate(-0.3)"/><path class="cls-1" d="M580.11,214.85H597.8v69h83v-69H698V381.28H681.7V302.16H598.21V381h-18.1Z" transform="translate(-0.3)"/><path class="cls-5" d="M968.44,111.21h-109c.45,21.47,11.36,38.91,29.47,44.5,27.38,8.45,48.09-1.68,62.64-26.17l13,6.56c-10.17,28.79-43.27,44.7-77.1,35.76-32.21-8.52-51.21-42.21-44.06-77.7C850,61.48,880.06,40.61,915,44.53,946.49,48.08,969.93,76.58,968.44,111.21ZM861.21,95.94h88.91c-4.15-21.38-20.89-35.13-43.58-36.1C885.47,58.94,868.11,72.53,861.21,95.94Z" transform="translate(-0.3)"/><path class="cls-5" d="M1104.23,67c.39-7.41.67-13,1-19.23h15.5V170.39h-15.46c-.29-5.29-.58-10.63-1-18.15-19,18.79-40.22,26.48-65.32,19.67-15.6-4.23-27.35-13.77-36.06-27-18.06-27.56-12.31-64.43,12.63-85.86C1036.5,41,1075.31,35.23,1104.23,67Zm1.49,43.2c.06-28.43-21-50.37-48.2-50.27-26.31.1-48.48,22.92-48.29,49.72.19,26.64,21.69,48.64,47.91,49C1084.58,159.08,1105.67,138,1105.72,110.2Z" transform="translate(-0.3)"/><path class="cls-1" d="M1275.07,381.68h-15.23c0-3.44.06-6.79,0-10.14-.47-24-.39-47.93-1.63-71.84-1.22-23.47-20.44-35.54-42.92-27.46-16.78,6-27.25,18.18-28.5,36.05-1.46,20.68-1.39,41.46-2,62.2-.1,3.45,0,6.9,0,10.89H1168.5v-171h16.23V278c11.19-11.46,21.72-20.28,36.37-22.51C1250,251.1,1273,267,1275,295.83c2,27.67,1,55.55,1.33,83.34C1276.3,379.73,1275.77,380.29,1275.07,381.68Z" transform="translate(-0.3)"/><path class="cls-1" d="M1771.31,316.78l71.26,64.32H1819L1758,326.78v54.59H1741.7V210.6h15.91V307l56.84-49.25h24.42Z" transform="translate(-0.3)"/><path class="cls-1" d="M1121.09,381.44h-16.76V272.91h-21.24v-14.8h20.4V212.22h17v45.21h24.64v14.71h-24.09Z" transform="translate(-0.3)"/><path class="cls-5" d="M1186.51,47.31h24.67V61.23h-24.33v109.3h-17V61.93h-21.2V47.4H1169V2.63h17.48Z" transform="translate(-0.3)"/><path class="cls-1" d="M1684.54,381.62h-18V258.36h16V273.9c13.43-14.31,26.44-25.58,46.78-15-2.87,4.65-5.61,9.09-8.28,13.4-20.5-4.25-35.68,9.89-36.31,34.58S1684.54,356.07,1684.54,381.62Z" transform="translate(-0.3)"/><path class="cls-5" d="M774.13,47.53h15.31c.45,4.73.86,9,1.39,14.69,12.69-13.7,25.63-24.06,45.31-13.48l-8,12.87c-22-3.06-36,11.12-36.88,37.19-.7,20.45-.77,40.91-1.1,61.37,0,3.45,0,6.9,0,10.64h-16Z" transform="translate(-0.3)"/><path class="cls-2" d="M1057.05,381.59h-14.84V210.32h14.84Z" transform="translate(-0.3)"/><path class="cls-1" d="M538.67,219.05l3.59-1.89c4,2.89,6,5.58,9.72,8.8" transform="translate(-0.3)"/><path class="cls-3" d="M950.12,95.94H861.21" transform="translate(-0.3)"/></svg>